<svg width="273" height="123" viewBox="0 0 273 123" fill="none" xmlns="http://www.w3.org/2000/svg">
<path fill-rule="evenodd" clip-rule="evenodd" d="M10.0274 85.5059C15.2395 85.5059 19.4649 89.7312 19.4649 94.9434L19.4649 113.063C19.4649 118.276 15.2395 122.501 10.0274 122.501C4.81516 122.501 0.589845 118.276 0.589845 113.063L0.589844 94.9434C0.589844 89.7312 4.81516 85.5059 10.0274 85.5059Z" fill="#7551DC"/>
<path fill-rule="evenodd" clip-rule="evenodd" d="M45.6787 72.6709C50.8909 72.6709 55.1162 76.8962 55.1162 82.1084L55.1162 113.063C55.1162 118.276 50.8909 122.501 45.6787 122.501C40.4665 122.501 36.2412 118.276 36.2412 113.063L36.2412 82.1084C36.2412 76.8962 40.4665 72.6709 45.6787 72.6709Z" fill="#7551DC"/>
<path fill-rule="evenodd" clip-rule="evenodd" d="M81.6338 26.8975C86.8458 26.8514 91.1084 31.0391 91.1545 36.2511L91.5287 112.897C91.5748 118.109 87.387 122.371 82.1751 122.417C76.9631 122.464 72.7005 118.276 72.6544 113.064L72.2802 36.4182C72.2341 31.2062 76.4218 26.9436 81.6338 26.8975Z" fill="#7551DC"/>
<path fill-rule="evenodd" clip-rule="evenodd" d="M118.131 47.0009C123.343 47.0009 127.568 51.2262 127.568 56.4384L127.568 113.063C127.568 118.276 123.343 122.501 118.131 122.501C112.919 122.501 108.693 118.276 108.693 113.063L108.693 56.4384C108.693 51.2262 112.919 47.0009 118.131 47.0009Z" fill="#7551DC"/>
<path fill-rule="evenodd" clip-rule="evenodd" d="M153.782 67.3859C158.994 67.3859 163.22 71.6112 163.22 76.8234L163.22 113.063C163.22 118.276 158.994 122.501 153.782 122.501C148.57 122.501 144.345 118.276 144.345 113.063L144.345 76.8234C144.345 71.6112 148.57 67.3859 153.782 67.3859Z" fill="#7551DC"/>
<path fill-rule="evenodd" clip-rule="evenodd" d="M189.433 55.9372C194.645 55.868 198.926 60.0368 198.995 65.2485L199.627 112.814C199.696 118.025 195.527 122.306 190.315 122.376C185.103 122.445 180.822 118.276 180.753 113.064L180.121 65.4992C180.052 60.2875 184.221 56.0064 189.433 55.9372Z" fill="#7551DC"/>
<path fill-rule="evenodd" clip-rule="evenodd" d="M225.966 30.2539C231.177 30.1772 235.464 34.3398 235.541 39.5514L236.62 112.787C236.697 117.998 232.534 122.285 227.322 122.362C222.111 122.439 217.824 118.276 217.747 113.064L216.668 39.8294C216.592 34.6177 220.754 30.3307 225.966 30.2539Z" fill="#7551DC"/>
<path fill-rule="evenodd" clip-rule="evenodd" d="M262.973 61.3459C268.185 61.3459 272.41 65.5712 272.41 70.7834L272.41 113.063C272.41 118.276 268.185 122.501 262.973 122.501C257.76 122.501 253.535 118.276 253.535 113.063L253.535 70.7834C253.535 65.5712 257.76 61.3459 262.973 61.3459Z" fill="#7551DC"/>
</svg>
